# xmcd
#
# Track frame offsets: 
#        150
#        11007
#        23381
#        33371
#        42536
#        55727
#        67021
#        77226
#        90144
#        98372
#        111132
#        123018
#        133558
#        149270
#        165168
#        173300
#        186679
#        196012
#        204822
#        213652
#        226045
#        253524
#        277422
#        295513
#        320970
#        340996
#
# Disc length: 4734 seconds
#
# Revision: 1
# Processed by: cddbd v1.5.2PL0 Copyright (c) Steve Scherf et al.
# Submitted via: ExactAudioCopy v1.0b4
#
DISCID=5e127c1a
DTITLE=Clifton Chenier - Zodico Blues and Boogie
DYEAR=1993
DGENRE=Cajun, Zydeco, Blues
TTITLE0=Boppin' The Rock
TTITLE1=Ay-Te Te Fee
TTITLE2=The Cats Dreamin'
TTITLE3=Squeeze Box Boogie
TTITLE4=The Things I Did For You
TTITLE5=Think It Over
TTITLE6=Zodico Stomp
TTITLE7=Yesterday (I Lost My Best Friend)
TTITLE8=Chenier's Boogie
TTITLE9=I'm On My Way (Back Home To You)
TTITLE10=All Night Long
TTITLE11=Opelousas Hop
TTITLE12=I'm On My Way (Back Home To You)
TTITLE13=Wherever You Go I'll Go
TTITLE14=Opelousas Hop
TTITLE15=Clifton's Dreamin'
TTITLE16=Chenier's Boogie
TTITLE17=Wherever You Go I'll Go
TTITLE18=Ay-Te Te Fee
TTITLE19=All Night Long
TTITLE20=Rock Me Baby
TTITLE21=Bon Ton Roulet
TTITLE22=In The Mood
TTITLE23=I'm A Hog For You
TTITLE24=Whole Lotta Lovin'
TTITLE25=Instrumental
EXTD=
EXTT0=
EXTT1=
EXTT2=
EXTT3=
EXTT4=
EXTT5=
EXTT6=
EXTT7=
EXTT8=
EXTT9=
EXTT10=
EXTT11=
EXTT12=
EXTT13=
EXTT14=
EXTT15=
EXTT16=
EXTT17=
EXTT18=
EXTT19=
EXTT20=
EXTT21=
EXTT22=
EXTT23=
EXTT24=
EXTT25=
PLAYORDER=
